<svg id="Layer_1" data-name="Layer 1" xmlns="http://www.w3.org/2000/svg" viewBox="0 0 194.66 210.69"><defs><style>.cls-1{fill:#50994d;}</style></defs><path class="cls-1" d="M28.88,89.59a16.68,16.68,0,0,1-15.25-9.93L1.42,52.07a16.7,16.7,0,0,1,8.51-22L74.71,1.43a16.66,16.66,0,0,1,22,8.5l12.2,27.59a16.68,16.68,0,0,1-8.5,22L35.61,88.16a16.47,16.47,0,0,1-6.73,1.43Zm9.21-48.88a11.63,11.63,0,1,0,10.64,6.93A11.6,11.6,0,0,0,38.09,40.71ZM72.23,25.62A11.63,11.63,0,0,0,61.6,42,11.63,11.63,0,1,0,72.23,25.62Z"/><path class="cls-1" d="M156.51,210.69a33.25,33.25,0,0,1-15.28-3.49c-3.45-1.52-6.7-2.95-11.91-2.95-6.06,0-10.59,2-14.58,3.71-3.23,1.4-6.28,2.73-9.58,2.73a33.21,33.21,0,0,1-15.27-3.49c-3.45-1.52-6.7-2.95-11.91-2.95-6.06,0-10.59,2-14.58,3.71-3.23,1.4-6.28,2.73-9.58,2.73a38.19,38.19,0,0,1-38.15-38.15,89.5,89.5,0,1,1,179,0A38.19,38.19,0,0,1,156.51,210.69Z"/></svg>